<?xml version="1.0" standalone="no"?>
<!DOCTYPE svg PUBLIC "-//W3C//DTD SVG 20010904//EN"
 "http://www.w3.org/TR/2001/REC-SVG-20010904/DTD/svg10.dtd">
<svg version="1.0" xmlns="http://www.w3.org/2000/svg"
 width="340.000000pt" height="148.000000pt" viewBox="0 0 340.000000 148.000000"
 preserveAspectRatio="xMidYMid meet">

<g transform="translate(0.000000,148.000000) scale(0.100000,-0.100000)"
fill="#000000" stroke="none">
<path d="M425 1428 c-3 -29 -5 -100 -3 -158 l3 -105 53 -3 54 -3 -6 28 c-16
80 -18 123 -6 123 8 0 11 25 9 85 l-3 85 -47 0 -48 0 -6 -52z m92 -65 c-3 -10
-5 -4 -5 12 0 17 2 24 5 18 2 -7 2 -21 0 -30z"/>
<path d="M2026 1464 c-4 -10 -1 -21 6 -26 7 -4 9 -8 3 -8 -5 0 -2 -5 8 -11 9
-5 17 -19 17 -29 0 -10 5 -22 10 -25 6 -3 10 -16 9 -28 0 -12 -3 -16 -6 -10
-3 10 -8 10 -19 -1 -17 -18 -18 -27 -1 -23 6 1 12 -5 12 -13 0 -8 -6 -14 -12
-13 -19 4 -16 -22 4 -38 9 -8 14 -9 11 -4 -7 11 17 37 25 28 4 -3 9 7 13 22 4
15 2 31 -5 38 -6 6 -11 25 -11 42 0 17 -4 35 -9 41 -5 5 -11 22 -13 39 -3 34
-32 46 -42 19z"/>
<path d="M2163 1462 c17 -19 17 -21 1 -30 -21 -12 -2 -26 24 -18 28 9 22 35
-12 53 -31 16 -31 16 -13 -5z"/>
<path d="M2307 1473 c12 -2 26 -10 32 -16 7 -10 0 -11 -30 -9 -49 5 -78 -17
-77 -59 1 -16 5 -29 10 -29 12 0 -12 -24 -32 -33 -8 -4 2 -5 24 -3 35 5 37 4
20 -9 -11 -8 -27 -15 -37 -15 -14 0 -15 -3 -6 -19 11 -17 14 -17 32 -2 49 40
49 41 27 76 -25 41 -25 43 5 37 14 -2 36 3 50 12 13 9 26 16 28 16 9 0 -14
-95 -28 -116 -19 -30 -52 -48 -60 -34 -3 5 -1 10 6 10 7 0 10 3 6 6 -13 14
-27 -7 -17 -26 8 -16 8 -18 -5 -14 -8 4 -15 1 -15 -4 0 -17 -37 -24 -60 -12
-17 9 -20 8 -20 -9 0 -42 63 -50 75 -10 9 27 22 24 28 -6 3 -18 -2 -30 -15
-40 -17 -11 -19 -17 -9 -42 l11 -28 -5 28 c-4 20 -1 29 12 33 37 12 69 30 86
48 15 17 17 17 17 3 0 -19 15 -23 26 -6 3 6 14 9 24 6 14 -3 19 2 22 24 3 16
0 29 -5 29 -5 0 -6 14 -2 30 4 18 3 30 -4 30 -14 0 -23 -18 -11 -22 6 -2 1 -9
-11 -17 -20 -12 -21 -11 -14 6 4 10 8 23 9 28 1 6 5 11 10 12 5 1 17 14 27 29
20 31 13 55 -25 87 -20 18 -20 18 12 2 17 -8 32 -11 32 -6 0 5 3 16 6 25 5 13
-3 16 -47 16 -39 0 -50 -3 -39 -10 13 -8 12 -10 -2 -10 -10 0 -18 5 -18 10 0
6 -15 9 -32 9 -23 -1 -26 -3 -11 -6z m13 -43 c8 -5 11 -10 5 -10 -5 0 -17 5
-25 10 -8 5 -10 10 -5 10 6 0 17 -5 25 -10z"/>
<path d="M2890 1352 c0 -71 -3 -170 -6 -219 l-7 -90 34 -5 c19 -3 35 -5 36 -4
0 0 4 101 8 224 l8 222 -37 0 -36 0 0 -128z"/>
<path d="M2988 1258 c-2 -123 -2 -227 0 -233 2 -5 17 -19 35 -30 17 -11 31
-24 30 -30 -1 -5 3 -15 8 -21 13 -16 -2 -26 -20 -12 -14 11 -14 10 0 -7 9 -11
22 -33 28 -50 l11 -30 -5 32 c-5 34 9 54 19 28 7 -20 36 -19 36 1 0 14 10 15
80 9 l80 -7 0 286 c0 181 -4 286 -10 286 -6 0 -11 -94 -12 -247 l-3 -248 -92
-3 c-71 -2 -93 0 -93 10 -1 7 -1 70 -1 139 0 69 -3 176 -6 237 l-6 112 -38 0
-37 0 -4 -222z"/>
<path d="M1270 1410 c0 -12 28 -25 36 -17 3 3 -4 10 -15 17 -15 7 -21 7 -21 0z"/>
<path d="M2500 1370 c-15 -27 -8 -35 31 -38 18 -1 35 -5 37 -7 2 -2 11 3 19
11 9 8 22 13 29 10 10 -4 14 3 14 19 0 32 -23 32 -44 0 -14 -21 -19 -23 -36
-13 -10 7 -18 16 -17 21 4 20 -22 17 -33 -3z"/>
<path d="M2300 1309 c0 -5 5 -7 10 -4 6 3 10 8 10 11 0 2 -4 4 -10 4 -5 0 -10
-5 -10 -11z"/>
<path d="M2577 1276 c-3 -8 -3 -31 0 -50 3 -21 1 -36 -4 -36 -6 0 -9 11 -8 24
3 19 -1 24 -21 22 -13 0 -24 -7 -24 -13 0 -7 -7 -13 -15 -13 -8 0 -15 -4 -15
-8 0 -17 25 -32 55 -32 19 0 37 -8 48 -21 10 -11 20 -19 22 -17 2 2 6 31 10
64 5 49 3 65 -10 78 -20 20 -31 20 -38 2z"/>
<path d="M1464 1135 c3 -9 6 -21 6 -26 0 -4 7 -6 15 -3 21 8 19 17 -6 33 -19
11 -21 11 -15 -4z"/>
<path d="M2540 1130 c0 -5 5 -10 11 -10 5 0 7 5 4 10 -3 6 -8 10 -11 10 -2 0
-4 -4 -4 -10z"/>
<path d="M406 1081 c-6 -9 84 -22 94 -14 2 2 -2 8 -10 13 -19 12 -77 13 -84 1z"/>
<path d="M1462 1030 c0 -19 2 -27 5 -17 2 9 2 25 0 35 -3 9 -5 1 -5 -18z"/>
<path d="M1740 1025 c10 -12 9 -15 -6 -16 -11 -1 -25 -1 -31 0 -7 1 -10 -5 -7
-12 4 -11 -4 -14 -32 -11 -22 1 -33 -1 -25 -5 19 -12 13 -24 -22 -44 -18 -10
-23 -15 -12 -11 11 4 33 7 49 6 29 -1 84 42 78 62 -2 4 9 5 24 2 15 -4 33 -2
42 5 10 7 2 -2 -17 -20 -18 -17 -30 -31 -25 -31 5 0 2 -5 -6 -10 -11 -7 -12
-12 -4 -20 9 -9 20 -8 42 4 38 20 42 20 42 1 0 -9 9 -15 24 -15 25 0 39 -13
42 -38 2 -7 -3 -11 -9 -9 -7 2 -11 13 -10 23 1 10 0 13 -3 7 -3 -7 -11 -13
-16 -13 -19 0 -88 -33 -88 -42 0 -4 9 -8 20 -8 11 0 20 -4 20 -10 0 -5 7 -10
15 -10 8 0 15 -5 15 -11 0 -5 4 -8 9 -4 5 3 12 1 16 -5 4 -6 -7 -13 -24 -16
-17 -4 -29 -11 -28 -16 1 -6 -4 -13 -12 -16 -8 -3 -11 0 -7 7 5 7 -6 11 -33
11 -40 0 -54 -12 -28 -24 6 -4 -6 -4 -28 -1 -22 2 -46 12 -52 22 -11 14 -9 19
15 29 32 15 62 38 62 48 0 4 -5 4 -12 0 -8 -5 -9 -2 -5 9 8 21 -7 22 -26 2 -8
-8 -18 -11 -22 -7 -5 4 -5 2 -2 -4 4 -6 -3 -20 -15 -30 -12 -11 -18 -13 -14
-6 4 7 2 12 -6 12 -10 0 -9 3 2 11 12 9 12 10 -3 5 -10 -3 -22 -6 -25 -6 -4 0
-1 -4 6 -9 10 -6 3 -16 -27 -40 -23 -18 -41 -39 -41 -47 0 -9 -4 -12 -10 -9
-5 3 -10 1 -10 -4 0 -18 19 -12 30 10 21 39 20 13 -1 -29 -23 -46 -30 -52 -24
-22 3 16 -1 19 -18 16 -14 -2 -29 4 -40 18 l-18 21 10 -21 c6 -12 8 -24 5 -26
-2 -3 2 -11 10 -17 8 -7 12 -20 9 -28 -4 -11 -2 -14 5 -9 6 3 16 -3 22 -14 6
-11 7 -20 3 -21 -4 -1 2 -4 15 -7 13 -4 23 -11 22 -16 -3 -16 23 -24 47 -15
37 14 45 11 39 -13 -3 -13 -3 -17 0 -10 11 23 24 12 19 -15 -4 -23 -4 -24 4
-8 8 18 11 15 27 -23 16 -40 18 -41 31 -22 17 24 48 28 39 5 -6 -17 19 -21 29
-5 3 6 11 10 16 10 6 0 7 -4 4 -10 -3 -5 1 -10 10 -10 9 0 15 5 13 12 -2 6 9
25 24 42 15 17 28 38 28 48 0 10 9 27 20 38 21 21 27 35 10 25 -16 -10 -12 11
5 25 18 15 20 34 3 24 -9 -5 -8 -2 1 9 12 15 12 17 -3 11 -12 -4 -16 0 -16 15
0 12 6 21 14 21 8 0 18 9 21 20 3 11 14 20 23 21 12 0 11 3 -5 9 -26 11 -30
28 -8 36 8 4 12 10 9 15 -3 5 0 9 5 9 6 0 11 15 10 33 0 27 -2 29 -9 12 -8
-19 -9 -19 -9 1 -1 15 -9 24 -26 28 -13 3 -29 15 -35 27 -8 13 -17 18 -30 14
-10 -3 -21 -1 -25 5 -3 6 3 10 17 10 20 0 18 5 -22 40 -29 25 -55 39 -74 40
-24 0 -27 -2 -16 -15z m35 -4 c3 -5 2 -12 -3 -15 -5 -3 -9 1 -9 9 0 17 3 19
12 6z m-108 -292 c6 -6 9 -17 7 -23 -4 -9 9 -11 48 -6 29 4 56 6 61 3 4 -2 10
3 13 12 4 10 10 12 18 6 6 -5 25 -8 42 -6 30 2 33 -2 25 -33 -1 -1 -13 5 -27
14 l-26 17 5 -31 c4 -24 1 -33 -14 -37 -22 -7 -62 12 -54 26 4 5 0 9 -8 9 -19
0 -68 -60 -60 -73 3 -6 1 -7 -5 -3 -6 3 -13 2 -17 -4 -4 -6 5 -10 19 -10 14 0
26 4 26 9 0 4 11 6 24 4 17 -4 22 -10 19 -24 -5 -16 0 -19 31 -19 20 0 35 3
35 8 -3 19 2 33 11 27 10 -6 2 -34 -16 -52 -10 -10 -13 -10 -17 0 -4 8 -8 9
-14 1 -21 -28 -52 -35 -88 -20 -49 21 -63 37 -75 89 -10 48 7 116 25 100 5 -5
3 0 -4 10 -15 19 -2 24 16 6z m128 -106 c17 3 23 1 17 -5 -17 -17 -65 -5 -68
17 -3 19 -2 19 11 1 10 -13 22 -17 40 -13z m-189 -20 c-10 -10 -19 5 -10 18 6
11 8 11 12 0 2 -7 1 -15 -2 -18z"/>
<path d="M329 1003 c-13 -16 -12 -17 4 -4 9 7 17 15 17 17 0 8 -8 3 -21 -13z"/>
<path d="M229 983 c-43 -48 -55 -69 -20 -38 29 27 58 65 48 65 -2 0 -14 -12
-28 -27z"/>
<path d="M1135 990 c3 -5 8 -10 11 -10 2 0 4 5 4 10 0 6 -5 10 -11 10 -5 0 -7
-4 -4 -10z"/>
<path d="M251 940 c-25 -22 -48 -40 -52 -40 -3 0 -9 -9 -12 -20 -12 -46 69 0
101 58 13 23 20 42 15 42 -4 0 -28 -18 -52 -40z"/>
<path d="M496 971 c-7 -11 43 -45 52 -35 4 4 1 9 -5 11 -7 3 -13 11 -13 19 0
15 -26 19 -34 5z"/>
<path d="M2916 967 c3 -10 9 -15 12 -12 3 3 0 11 -7 18 -10 9 -11 8 -5 -6z"/>
<path d="M1161 954 c0 -11 3 -14 6 -6 3 7 2 16 -1 19 -3 4 -6 -2 -5 -13z"/>
<path d="M1463 915 c0 -33 2 -45 4 -27 2 18 2 45 0 60 -2 15 -4 0 -4 -33z"/>
<path d="M1141 944 c0 -11 3 -14 6 -6 3 7 2 16 -1 19 -3 4 -6 -2 -5 -13z"/>
<path d="M476 937 c3 -10 9 -15 12 -12 3 3 0 11 -7 18 -10 9 -11 8 -5 -6z"/>
<path d="M2917 919 c4 -13 8 -18 11 -10 2 7 -1 18 -6 23 -8 8 -9 4 -5 -13z"/>
<path d="M917 924 c7 -3 9 -20 7 -45 -3 -26 0 -44 9 -54 12 -12 14 -8 12 31
-2 24 1 47 6 50 17 10 9 20 -18 21 -16 1 -23 -1 -16 -3z"/>
<path d="M577 906 c-4 -10 -5 -21 -2 -24 9 -9 17 6 13 25 -3 17 -4 17 -11 -1z"/>
<path d="M1556 898 c-9 -13 -16 -17 -16 -9 0 11 -3 11 -15 1 -8 -7 -15 -18
-15 -26 0 -7 -9 -16 -20 -19 -11 -4 -18 -11 -14 -16 3 -6 12 -5 22 3 14 12 14
10 2 -12 -7 -14 -17 -28 -22 -31 -5 -3 -10 -12 -11 -20 -2 -8 -7 -20 -11 -28
-6 -9 -5 -12 2 -7 6 3 19 -5 30 -19 l20 -25 -1 48 c-2 38 4 58 26 91 42 63 62
125 23 69z"/>
<path d="M901 863 c0 -29 3 -53 7 -53 4 0 6 17 4 38 -6 64 -10 69 -11 15z"/>
<path d="M1156 891 c-11 -12 -25 -21 -33 -21 -7 0 -13 -7 -13 -15 0 -8 6 -15
14 -15 8 0 18 -10 22 -22 3 -12 14 -29 23 -39 16 -17 17 -17 17 1 0 10 -5 18
-11 17 -13 -3 -16 64 -3 80 18 22 3 35 -16 14z"/>
<path d="M403 888 c-13 -6 -23 -15 -23 -19 0 -9 47 8 65 23 13 12 -16 9 -42
-4z"/>
<path d="M150 855 c-8 -9 -8 -15 -2 -15 12 0 26 19 19 26 -2 2 -10 -2 -17 -11z"/>
<path d="M227 856 c-20 -6 -50 -25 -67 -41 -27 -27 -30 -39 -36 -110 l-6 -80
20 23 20 22 4 -24 c3 -13 1 -31 -4 -40 -5 -9 -5 -16 -1 -16 9 0 5 -97 -5 -120
-3 -8 -9 12 -12 45 l-7 60 -1 -60 c-2 -56 -14 -67 -24 -20 -3 11 -6 1 -9 -23
l-5 -43 81 7 c87 7 158 -8 220 -46 l32 -20 7 30 c5 26 15 35 61 55 31 14 64
25 74 25 20 0 35 36 20 46 -6 3 -4 15 4 28 8 12 13 34 10 48 -3 14 0 29 6 32
6 4 11 12 11 17 0 6 -4 7 -10 4 -5 -3 -10 -2 -10 4 0 6 -8 7 -17 4 -12 -5 -15
-2 -10 10 3 9 3 16 -1 16 -22 -4 -32 3 -32 22 0 14 5 19 14 16 10 -4 13 -1 9
9 -3 7 0 14 7 14 6 0 14 -9 17 -20 6 -22 18 -26 28 -10 3 6 -1 13 -9 16 -9 3
-16 13 -16 21 0 8 4 12 9 8 5 -3 12 -1 16 5 3 5 -2 10 -12 10 -17 1 -17 1 -1
11 11 6 18 22 18 40 0 18 -4 28 -10 24 -5 -3 -10 -16 -10 -28 0 -16 -3 -19 -9
-8 -5 7 -13 11 -19 7 -5 -3 -12 1 -16 9 -6 17 -81 21 -91 5 -3 -5 -11 -10 -16
-10 -6 0 -7 5 -4 11 4 6 -2 5 -14 -3 -11 -7 -23 -19 -26 -27 -4 -10 1 -9 16 5
21 17 22 17 16 1 -4 -11 -3 -16 3 -12 5 3 19 8 29 10 31 6 31 -29 0 -79 -16
-25 -26 -46 -23 -46 4 0 -5 -12 -21 -26 -22 -21 -26 -31 -21 -57 7 -34 42 -77
63 -77 7 0 13 -4 13 -10 0 -17 -36 -11 -54 9 -10 11 -23 18 -29 15 -7 -2 -23
19 -37 48 l-24 53 -7 -30 c-6 -28 -7 -28 -8 -5 -1 22 -3 23 -12 8 -13 -24 12
-99 37 -109 14 -6 15 -8 3 -8 -8 -1 -21 5 -27 11 -10 10 -15 10 -22 -2 -8 -13
-11 -13 -26 2 -25 25 -31 119 -10 149 23 33 20 47 -4 19 -24 -28 -27 -9 -3 27
l17 26 -32 -17 c-39 -20 -41 -13 -6 19 26 24 26 25 5 25 -13 0 -19 4 -16 10 4
6 10 8 15 5 5 -3 14 3 19 14 9 16 8 18 -9 14 -12 -3 -20 0 -20 6 0 7 6 9 13 5
9 -5 9 -4 -1 7 -10 11 -8 17 10 31 26 20 26 20 -25 4z m343 -61 c0 -11 -10
-15 -32 -14 -31 2 -31 2 -5 6 15 2 25 9 22 14 -4 5 -1 9 4 9 6 0 11 -7 11 -15z
m-10 -139 c0 -15 -7 -26 -20 -29 -23 -6 -25 5 -8 33 17 27 28 25 28 -4z m-352
-121 c-2 -53 -5 -65 -18 -62 -25 5 -10 127 16 127 2 0 3 -29 2 -65z"/>
<path d="M2733 853 c-7 -2 -13 -9 -13 -14 0 -4 6 -6 14 -3 8 3 15 -3 18 -14 4
-15 12 -19 31 -15 31 6 26 32 -7 34 -19 1 -19 2 4 9 24 8 24 8 -5 8 -16 0 -36
-2 -42 -5z"/>
<path d="M2979 855 c-3 -2 -39 -7 -80 -9 -41 -2 -77 -5 -81 -5 -4 -1 -5 -7 -2
-15 4 -11 12 -13 27 -7 12 4 47 9 77 10 30 2 59 5 64 8 5 4 6 1 2 -5 -3 -6 -2
-13 4 -17 5 -3 10 -1 10 5 0 7 5 6 13 -2 25 -22 -4 -78 -40 -78 -9 0 -8 5 4
19 9 11 20 18 25 15 4 -3 8 0 8 6 0 7 -9 14 -20 17 -11 3 -20 10 -20 15 0 5
-4 6 -10 3 -6 -4 -5 -13 3 -25 10 -17 8 -23 -10 -42 l-22 -22 -26 30 c-19 21
-25 25 -25 12 0 -9 5 -20 10 -23 16 -10 12 -23 -9 -30 -10 -3 -22 -20 -26 -38
l-8 -32 -6 40 c-5 30 -8 36 -14 22 -4 -10 -7 -29 -7 -41 0 -24 -22 -48 -53
-59 -21 -8 -14 -27 11 -28 11 0 28 -23 46 -59 31 -63 66 -105 66 -79 0 8 -8
26 -17 39 l-17 25 22 -18 c11 -11 26 -16 32 -12 6 3 10 3 9 -2 -3 -20 2 -46 8
-39 13 12 14 59 3 66 -8 5 -6 9 5 13 9 4 14 3 12 -1 -3 -4 -2 -15 2 -25 6 -17
8 -17 32 5 41 38 79 94 79 115 0 11 -10 27 -22 35 -21 14 -22 18 -9 40 8 17
12 49 9 94 -3 57 -7 69 -21 68 -9 -1 -17 2 -17 7 0 10 -13 12 -21 4z m16 -134
c-8 -13 -35 -15 -35 -2 0 5 8 11 18 13 21 5 26 2 17 -11z m-8 -83 c-3 -7 -5
-2 -5 12 0 14 2 19 5 13 2 -7 2 -19 0 -25z m-47 -58 c0 -5 -4 -10 -10 -10 -5
0 -10 5 -10 10 0 6 5 10 10 10 6 0 10 -4 10 -10z"/>
<path d="M367 823 c-13 -14 -17 -14 -17 -3 0 9 -3 10 -9 5 -5 -6 -6 -26 -3
-46 l7 -37 22 49 c12 27 21 49 20 49 -2 0 -10 -8 -20 -17z"/>
<path d="M2670 836 c0 -2 9 -6 20 -9 11 -3 18 -1 14 4 -5 9 -34 13 -34 5z"/>
<path d="M1126 794 c-4 -9 -4 -19 -1 -22 2 -3 7 3 11 12 4 9 4 19 1 22 -2 3
-7 -3 -11 -12z"/>
<path d="M450 790 c-8 -5 -12 -12 -9 -15 4 -3 12 1 19 10 14 17 11 19 -10 5z"/>
<path d="M926 792 c-7 -6 5 -32 14 -32 4 0 10 8 12 18 5 17 -14 27 -26 14z"/>
<path d="M2914 773 c4 -25 26 -28 26 -4 0 12 -6 21 -14 21 -8 0 -13 -8 -12
-17z"/>
<path d="M1140 760 c0 -12 28 -25 36 -17 3 3 -4 10 -15 17 -15 7 -21 7 -21 0z"/>
<path d="M700 750 c0 -21 34 -108 48 -122 6 -6 15 -8 19 -3 5 4 2 10 -5 12
-13 5 -20 19 -48 93 -7 19 -13 28 -14 20z"/>
<path d="M1114 743 c-13 -41 -29 -63 -40 -59 -7 3 -16 -5 -20 -16 -8 -27 -43
-57 -67 -58 -24 0 -57 -18 -57 -31 0 -6 5 -7 10 -4 6 3 10 -1 10 -9 0 -8 -9
-20 -20 -26 -14 -7 -20 -7 -20 0 0 5 6 10 13 11 6 0 3 4 -8 8 -23 9 -49 -17
-34 -35 5 -6 6 -13 3 -16 -7 -8 -84 43 -84 54 0 5 -12 8 -27 6 -20 -2 -27 -8
-25 -20 3 -19 -13 -25 -23 -8 -3 5 -12 7 -20 3 -8 -3 -15 0 -15 6 0 6 -5 11
-11 11 -5 0 -7 -5 -3 -11 5 -8 1 -8 -14 0 -37 20 -44 12 -13 -15 23 -19 35
-23 48 -16 25 13 42 5 36 -17 -2 -10 5 -34 16 -55 22 -38 27 -61 13 -52 -5 3
-28 9 -51 15 -35 8 -40 7 -30 -5 6 -8 14 -12 18 -9 4 2 13 -18 20 -46 l13 -49
126 4 c125 4 162 9 182 21 6 4 27 9 47 11 44 6 41 2 43 39 5 68 5 67 -59 63
-33 -1 -57 0 -55 4 3 4 -2 31 -11 60 -8 28 -15 55 -15 59 0 8 64 33 90 35 36
3 40 5 40 19 0 8 -5 15 -12 15 -6 0 -4 7 5 18 10 10 17 24 17 30 0 7 5 12 10
12 6 0 10 7 10 15 0 8 -4 15 -10 15 -5 0 -7 6 -4 14 3 8 1 17 -5 21 -6 3 -14
-2 -17 -12z m-14 -124 c0 -5 -9 -9 -20 -9 -22 0 -23 1 -14 24 5 13 9 14 20 5
8 -6 14 -15 14 -20z m-106 -31 c-3 -4 -9 -8 -15 -8 -5 0 -9 4 -9 8 0 5 7 9 15
9 8 0 12 -4 9 -9z m-209 -48 c3 -5 1 -10 -4 -10 -6 0 -11 5 -11 10 0 6 2 10 4
10 3 0 8 -4 11 -10z m120 -88 c-3 -3 -11 0 -18 7 -9 10 -8 11 6 5 10 -3 15 -9
12 -12z m83 6 c25 -32 22 -53 -9 -71 -25 -14 -30 -14 -26 -3 4 10 -1 16 -15
18 -28 4 -36 28 -9 28 15 0 19 4 14 17 -4 11 -3 14 5 9 7 -4 12 -2 12 3 0 15
15 14 28 -1z"/>
<path d="M2700 742 c-5 -2 -10 -12 -10 -22 0 -16 -11 -18 -106 -19 -83 -2
-111 2 -131 14 -14 9 -27 14 -31 11 -3 -3 1 -6 9 -6 11 -1 10 -3 -2 -13 -9 -7
-18 -21 -20 -32 -3 -15 -13 -20 -39 -22 -31 -2 -32 -1 -10 7 19 6 7 8 -45 9
-49 0 -65 -2 -55 -9 12 -8 13 -10 1 -10 -8 0 -23 8 -33 17 -16 14 -21 15 -28
4 -6 -11 -11 -9 -21 8 -16 24 -44 29 -36 6 4 -8 2 -17 -4 -20 -13 -9 -5 -78
11 -83 9 -3 10 0 4 9 -7 12 -5 12 9 0 9 -7 17 -25 17 -40 0 -36 27 -73 48 -67
22 7 53 -13 33 -21 -7 -3 -22 -14 -33 -25 -19 -19 -20 -19 -25 1 -3 12 -9 21
-14 21 -5 0 -2 -14 6 -30 9 -17 20 -28 26 -24 11 6 46 12 114 18 22 2 59 11
82 19 30 10 43 11 46 3 3 -6 5 0 5 14 0 14 1 46 3 71 l2 46 69 2 c49 1 68 -2
63 -9 -4 -6 -13 -9 -21 -6 -7 3 -16 0 -20 -6 -4 -7 -3 -8 4 -4 7 4 12 5 12 1
0 -3 -10 -9 -22 -14 -25 -10 -52 5 -41 22 4 6 1 7 -6 3 -17 -11 10 -50 37 -54
31 -5 72 26 72 55 0 20 10 29 60 50 33 15 60 31 60 36 0 5 -6 5 -13 -2 -11 -8
-16 -6 -24 12 -14 34 -5 55 28 62 16 4 29 10 29 13 0 7 -42 10 -60 4z"/>
<path d="M2210 716 c-9 -12 -7 -17 9 -26 17 -9 21 -8 21 5 0 9 9 15 22 15 26
0 21 5 -13 13 -17 5 -31 2 -39 -7z"/>
<path d="M635 710 c-19 -8 -19 -9 3 -9 12 -1 22 4 22 9 0 6 -1 10 -2 9 -2 0
-12 -4 -23 -9z"/>
<path d="M2780 711 c0 -6 -12 -11 -27 -11 -16 0 -34 -4 -41 -9 -23 -14 12 -21
52 -10 36 10 45 22 26 34 -5 3 -10 1 -10 -4z"/>
<path d="M295 690 c-3 -5 -1 -10 4 -10 6 0 11 5 11 10 0 6 -2 10 -4 10 -3 0
-8 -4 -11 -10z"/>
<path d="M50 677 c0 -7 -11 -28 -25 -47 -14 -19 -25 -41 -24 -49 0 -10 4 -8 9
6 5 12 18 31 29 42 19 19 29 61 16 61 -3 0 -5 -6 -5 -13z"/>
<path d="M1974 666 c6 -26 6 -27 -9 -12 -22 22 -25 21 -25 -14 0 -29 1 -30 46
-28 25 1 51 7 58 13 12 13 39 8 31 -5 -3 -4 3 -7 13 -6 9 0 16 -4 15 -11 -2
-7 4 -10 12 -7 17 7 20 24 4 24 -5 0 -7 4 -4 10 3 5 0 7 -9 4 -8 -3 -24 4 -35
15 -17 17 -26 19 -46 11 -20 -8 -27 -5 -41 13 -16 22 -16 22 -10 -7z"/>
<path d="M671 584 c0 -11 3 -14 6 -6 3 7 2 16 -1 19 -3 4 -6 -2 -5 -13z"/>
<path d="M1935 590 c3 -5 11 -10 16 -10 6 0 7 5 4 10 -3 6 -11 10 -16 10 -6 0
-7 -4 -4 -10z"/>
<path d="M3092 588 c5 -14 138 -67 181 -72 17 -2 34 -11 39 -20 5 -9 14 -14
19 -10 5 3 8 2 7 -3 -1 -4 3 -17 9 -28 6 -11 14 -42 18 -70 9 -67 15 -85 26
-85 6 0 9 39 7 98 l-3 97 -56 37 c-74 49 -258 91 -247 56z"/>
<path d="M1997 541 c-4 -17 -3 -21 5 -13 5 5 8 16 6 23 -3 8 -7 3 -11 -10z"/>
<path d="M1550 535 c0 -5 5 -17 10 -25 5 -8 10 -10 10 -5 0 6 -5 17 -10 25 -5
8 -10 11 -10 5z"/>
<path d="M2041 524 c0 -11 3 -14 6 -6 3 7 2 16 -1 19 -3 4 -6 -2 -5 -13z"/>
<path d="M37 524 c-4 -4 -7 -16 -7 -27 0 -16 -3 -17 -15 -7 -8 7 -15 9 -15 4
1 -5 16 -19 35 -31 l35 -22 -4 42 c-3 40 -15 55 -29 41z"/>
<path d="M2123 484 c0 -17 2 -22 7 -13 5 6 6 18 3 26 -8 19 -10 16 -10 -13z"/>
<path d="M2175 480 c4 -6 11 -8 16 -5 14 9 11 15 -7 15 -8 0 -12 -5 -9 -10z"/>
<path d="M2092 440 c0 -22 -4 -46 -7 -52 -4 -7 3 -1 15 15 12 15 27 24 32 21
7 -4 8 -2 4 5 -4 6 -11 9 -16 6 -10 -6 -22 23 -14 36 3 5 1 9 -4 9 -5 0 -10
-18 -10 -40z"/>
<path d="M1215 450 c-3 -5 -2 -10 4 -10 6 0 8 -7 5 -15 -4 -8 -3 -15 0 -15 9
0 46 34 46 42 0 12 -48 10 -55 -2z"/>
<path d="M2960 453 c8 -3 24 -10 35 -15 20 -9 20 -9 1 6 -11 9 -27 16 -35 15
-14 0 -14 -1 -1 -6z"/>
<path d="M1293 435 c0 -8 4 -15 9 -15 4 0 8 7 8 15 0 8 -4 15 -8 15 -5 0 -9
-7 -9 -15z"/>
<path d="M2405 425 c-57 -16 -93 -33 -75 -36 30 -4 78 -4 74 1 -3 2 12 9 33
15 27 8 40 8 45 1 5 -8 10 -8 18 0 18 18 -49 31 -95 19z"/>
<path d="M1180 420 c0 -5 5 -10 10 -10 6 0 10 5 10 10 0 6 -4 10 -10 10 -5 0
-10 -4 -10 -10z"/>
<path d="M1952 400 c0 -19 2 -27 5 -17 2 9 2 25 0 35 -3 9 -5 1 -5 -18z"/>
<path d="M2786 414 c-22 -22 -21 -22 19 -10 19 6 35 14 35 18 0 14 -38 8 -54
-8z"/>
<path d="M3025 420 c3 -5 8 -10 11 -10 2 0 4 5 4 10 0 6 -5 10 -11 10 -5 0 -7
-4 -4 -10z"/>
<path d="M1249 399 c-8 -11 -19 -17 -26 -14 -7 2 -13 0 -13 -5 0 -6 10 -10 23
-10 12 0 29 -4 37 -10 16 -10 30 4 30 31 0 25 -35 30 -51 8z"/>
<path d="M1885 400 c-3 -5 1 -10 10 -10 9 0 13 5 10 10 -3 6 -8 10 -10 10 -2
0 -7 -4 -10 -10z"/>
<path d="M1866 371 c-3 -5 0 -11 7 -14 8 -3 14 1 14 9 0 16 -13 19 -21 5z"/>
<path d="M2220 360 c1 -17 21 -32 50 -35 37 -5 45 -10 36 -24 -4 -5 -17 -8
-31 -5 -20 3 -23 1 -18 -13 3 -10 12 -27 20 -38 13 -19 13 -19 13 3 0 13 4 21
9 18 5 -3 11 1 15 9 6 17 76 21 76 5 0 -5 3 -10 8 -10 4 0 8 16 9 36 1 21 9
42 20 50 16 12 14 12 -14 3 -34 -11 -42 -24 -20 -32 6 -2 9 -7 6 -11 -11 -12
-79 5 -79 19 0 7 -8 16 -17 20 -20 9 -83 13 -83 5z"/>
<path d="M1194 338 c-4 -13 -19 -37 -33 -55 -22 -28 -27 -30 -33 -15 -5 14 -7
12 -7 -7 -1 -17 -5 -22 -17 -17 -13 5 -15 1 -12 -18 7 -36 -32 -41 -49 -6
l-12 25 5 -27 c6 -28 7 -28 -68 -43 -19 -3 -26 30 -8 37 6 2 6 8 0 18 -8 13
-10 12 -10 -3 0 -10 -5 -15 -10 -12 -7 4 -9 -2 -5 -17 5 -21 3 -23 -32 -23
-33 0 -40 4 -50 30 l-13 30 6 -32 c5 -31 4 -33 -22 -33 -23 0 -18 -5 31 -31
46 -24 62 -29 83 -21 15 5 51 8 80 7 29 -1 55 1 57 5 2 3 16 5 32 4 32 -2 89
46 130 109 l24 39 -25 39 c-15 21 -28 39 -30 39 -3 0 -8 -10 -12 -22z"/>
<path d="M2677 320 c5 -35 3 -41 -18 -49 -22 -8 -22 -10 -6 -16 13 -6 15 -10
7 -15 -8 -5 -9 -10 -2 -14 6 -3 17 0 25 9 8 8 28 17 43 19 66 12 81 17 82 29
1 7 4 24 8 40 6 25 4 27 -25 27 -17 0 -31 -4 -31 -10 0 -5 5 -10 10 -10 6 0
10 -11 10 -25 0 -14 -2 -25 -5 -25 -11 0 -45 41 -45 54 0 14 -21 26 -45 26
-10 0 -12 -11 -8 -40z m73 -30 c0 -5 -5 -10 -11 -10 -5 0 -7 5 -4 10 3 6 8 10
11 10 2 0 4 -4 4 -10z"/>
<path d="M1951 334 c0 -11 3 -14 6 -6 3 7 2 16 -1 19 -3 4 -6 -2 -5 -13z"/>
<path d="M94 326 c-10 -8 -17 -17 -14 -19 3 -3 16 3 30 13 29 22 14 27 -16 6z"/>
<path d="M1857 333 c-4 -3 -7 -11 -7 -17 0 -6 5 -5 12 2 6 6 9 14 7 17 -3 3
-9 2 -12 -2z"/>
<path d="M2621 324 c0 -11 3 -14 6 -6 3 7 2 16 -1 19 -3 4 -6 -2 -5 -13z"/>
<path d="M2434 306 c-9 -20 -8 -25 5 -30 9 -3 23 -9 31 -12 8 -3 7 0 -3 6 -12
8 -15 18 -11 36 8 31 -8 31 -22 0z"/>
<path d="M2221 280 c-1 -20 5 -42 11 -48 10 -10 10 -15 -2 -22 -19 -12 -6 -25
13 -13 13 7 12 16 -4 63 -17 53 -18 53 -18 20z"/>
<path d="M2635 300 c-3 -5 -1 -10 4 -10 6 0 11 5 11 10 0 6 -2 10 -4 10 -3 0
-8 -4 -11 -10z"/>
<path d="M680 287 c8 -7 27 -31 43 -54 15 -24 29 -43 31 -43 4 0 -10 70 -16
74 -42 32 -94 52 -58 23z"/>
<path d="M1612 273 c-5 -10 -13 -32 -16 -50 -5 -22 -14 -33 -31 -37 -24 -6
-24 -7 -7 -24 9 -10 19 -14 20 -10 6 13 22 9 22 -6 0 -17 41 -29 54 -16 6 6
15 10 21 10 5 0 2 -5 -8 -11 -14 -8 -16 -14 -6 -25 6 -7 15 -11 20 -8 5 3 9 1
9 -5 0 -5 3 -16 6 -24 4 -10 -1 -15 -13 -14 -10 1 -17 -3 -16 -10 3 -15 -25
-38 -35 -28 -4 4 -1 10 6 12 18 7 -4 33 -27 33 -14 -1 -14 -2 2 -11 34 -20 5
-27 -109 -27 -109 0 -115 1 -109 19 7 22 -4 24 -29 6 -11 -8 -15 -19 -10 -30
5 -15 25 -17 193 -17 102 0 181 4 174 8 -8 5 -9 13 -3 22 7 11 10 11 10 2 0
-9 10 -11 35 -6 34 6 50 -8 23 -19 -7 -3 16 -6 51 -6 64 -1 64 -1 46 19 -10
12 -25 18 -32 16 -7 -3 -15 -1 -18 4 -4 6 2 10 13 10 18 0 72 48 72 64 0 17
39 56 45 46 3 -6 12 -7 18 -3 9 5 9 3 1 -8 -6 -8 -15 -25 -18 -39 -4 -14 -4
-20 1 -15 5 7 25 4 58 -7 l50 -17 -42 -1 c-42 0 -63 -13 -43 -25 6 -4 8 -14 5
-23 -4 -14 2 -17 28 -17 17 0 35 4 39 9 4 6 44 5 103 -3 53 -7 98 -11 100 -9
7 7 -7 48 -15 43 -4 -3 -11 2 -14 11 -3 8 -10 13 -14 10 -15 -9 -55 41 -48 59
5 15 7 15 22 1 20 -21 31 -20 51 3 9 11 20 18 24 15 4 -2 5 5 2 16 -7 27 -17
25 -31 -5 -16 -34 -27 -31 -49 14 -19 37 -19 39 -1 50 11 7 18 23 18 42 0 17
-4 28 -10 24 -5 -3 -7 -12 -4 -19 7 -18 -45 -66 -62 -59 -18 7 -18 28 1 47 22
22 19 25 -19 16 -22 -5 -39 -3 -47 4 -10 8 -10 7 0 -6 7 -10 17 -15 22 -12 5
3 9 -4 9 -15 0 -12 -4 -21 -9 -21 -5 0 -16 -2 -23 -5 -10 -4 -14 3 -13 22 0
23 -5 29 -27 31 -15 2 -35 -2 -45 -8 -17 -10 -17 -10 1 -8 25 4 29 -27 9 -59
-11 -17 -18 -21 -24 -12 -4 6 -14 9 -24 6 -9 -4 -13 -3 -10 2 3 5 1 12 -5 16
-5 3 -15 -3 -22 -15 -14 -22 -44 -27 -51 -7 -4 10 -6 10 -6 0 -1 -7 -12 -13
-26 -13 -43 0 -27 -20 18 -21 38 -1 36 -2 -21 -11 -71 -11 -82 -34 -14 -29 23
1 42 -2 42 -7 0 -6 -15 -9 -32 -8 -29 1 -33 -2 -31 -22 3 -21 2 -22 -22 -6
-13 8 -31 17 -40 18 -26 4 -34 27 -29 76 3 33 2 40 -5 25 -5 -11 -10 -14 -10
-7 -1 7 4 21 11 31 9 15 7 23 -8 44 -21 29 -37 36 -28 12 4 -8 1 -15 -5 -15
-6 0 -11 6 -11 14 0 23 -18 28 -28 9z m72 -39 c3 -8 2 -12 -4 -9 -6 3 -10 10
-10 16 0 14 7 11 14 -7z m376 -46 c0 -6 -3 -8 -7 -5 -3 4 -12 2 -20 -4 -8 -8
-13 -8 -13 -1 0 10 15 19 33 21 4 1 7 -4 7 -11z m-420 -2 c0 -3 -4 -8 -10 -11
-5 -3 -10 -1 -10 4 0 6 5 11 10 11 6 0 10 -2 10 -4z m529 -10 c9 -11 7 -13
-13 -13 -20 0 -22 2 -13 13 15 16 13 16 26 0z m-112 -52 c-3 -3 -12 -4 -19 -1
-8 3 -5 6 6 6 11 1 17 -2 13 -5z m-177 -18 c0 -3 -4 -8 -10 -11 -5 -3 -10 -1
-10 4 0 6 5 11 10 11 6 0 10 -2 10 -4z"/>
<path d="M3386 267 c3 -8 -13 -30 -36 -50 -22 -21 -34 -37 -26 -37 7 0 19 7
26 15 7 8 19 15 27 15 22 0 12 -43 -11 -46 -27 -4 -37 -24 -31 -61 4 -20 2
-33 -5 -33 -5 0 -10 5 -10 12 0 6 -3 8 -6 5 -4 -4 -1 -13 6 -22 18 -21 39 -2
32 30 -3 17 0 25 9 25 11 0 11 2 -1 10 -12 7 -12 12 -2 22 9 9 12 9 12 0 0 -7
7 -12 15 -12 12 0 15 14 15 70 0 39 -4 70 -10 70 -5 0 -7 -6 -4 -13z"/>
<path d="M2153 251 c-12 -10 -19 -21 -16 -25 11 -11 23 -6 23 9 0 8 7 15 15
15 8 0 15 5 15 10 0 15 -12 12 -37 -9z"/>
<path d="M3095 260 c3 -5 0 -19 -7 -30 -11 -17 -11 -22 2 -30 8 -5 17 -7 19
-4 3 3 -1 9 -9 14 -11 7 -11 11 -1 24 12 15 15 15 27 -1 11 -15 13 -15 14 -2
0 8 -5 20 -12 27 -14 14 -42 16 -33 2z"/>
<path d="M3145 253 c5 -10 8 -25 9 -33 0 -9 8 -24 18 -34 16 -18 17 -17 24 9
9 36 -10 75 -37 75 -16 0 -19 -4 -14 -17z m40 -14 c11 -17 -1 -21 -15 -4 -8 9
-8 15 -2 15 6 0 14 -5 17 -11z"/>
<path d="M2538 248 c-9 -7 -18 -25 -22 -40 -6 -28 -29 -41 -24 -14 2 8 -1 14
-7 14 -23 -1 -35 -11 -35 -30 0 -10 -4 -16 -10 -13 -5 3 -10 2 -10 -4 0 -6 -7
-8 -15 -5 -11 5 -15 -1 -15 -24 0 -26 -4 -31 -37 -37 -35 -6 -37 -8 -18 -21
29 -21 82 -18 95 6 9 17 7 22 -12 30 -23 9 -23 9 4 9 15 1 30 -4 33 -9 3 -6
17 -10 31 -10 14 0 22 -4 19 -10 -3 -5 -2 -10 3 -10 11 0 3 -48 -9 -56 -25
-15 -1 -24 65 -24 l74 0 4 36 c5 44 -22 133 -39 127 -6 -2 -18 18 -28 46 -18
54 -22 58 -47 39z"/>
<path d="M2804 250 c-12 -5 -25 -13 -28 -18 -3 -5 -16 -7 -30 -5 -13 3 -32 0
-43 -6 -15 -9 -12 -10 19 -11 20 0 40 -5 44 -11 4 -8 9 -7 15 2 7 11 9 10 9
-3 0 -16 2 -16 33 0 17 9 34 20 35 25 2 4 10 7 18 7 9 0 12 -5 8 -12 -4 -7 -3
-8 4 -4 8 5 12 -1 12 -15 0 -20 -3 -21 -45 -16 -24 4 -47 3 -50 -2 -3 -5 -26
-4 -53 3 -26 7 -58 9 -72 5 -14 -4 -18 -8 -10 -8 9 -1 11 -4 4 -9 -10 -7 16
-40 34 -43 21 -4 32 -13 32 -25 0 -8 -4 -14 -10 -14 -5 0 -10 6 -10 13 0 8 -6
14 -13 14 -15 0 -16 -47 -2 -63 6 -6 18 -11 28 -11 13 0 17 9 17 38 l0 38 38
-17 c20 -9 71 -19 112 -23 41 -3 86 -10 99 -14 23 -8 23 -7 16 34 -4 22 -3 41
2 41 24 1 35 18 24 39 -7 11 -17 21 -25 21 -7 0 -30 13 -52 30 -44 34 -54 36
-54 15 0 -12 -7 -14 -27 -9 -16 4 -32 11 -37 15 -12 11 -14 10 -42 -1z m19
-17 c-7 -2 -19 -2 -25 0 -7 3 -2 5 12 5 14 0 19 -2 13 -5z m-79 -72 c4 -5 -3
-7 -14 -4 -23 6 -26 13 -6 13 8 0 17 -4 20 -9z m111 -1 c-3 -5 1 -10 9 -10 9
0 16 -4 16 -10 0 -13 -27 -13 -36 1 -3 6 -19 9 -35 7 -16 -3 -29 -1 -29 3 0 4
17 10 38 12 20 2 38 4 40 5 2 1 0 -2 -3 -8z"/>
<path d="M1938 243 c7 -3 16 -2 19 1 4 3 -2 6 -13 5 -11 0 -14 -3 -6 -6z"/>
<path d="M2375 234 c-22 -7 -35 -13 -30 -14 6 -1 1 -5 -10 -10 -13 -6 -2 -7
33 -3 35 4 52 2 52 -5 0 -6 7 -9 15 -6 8 4 15 16 15 28 0 16 -3 18 -9 7 -7
-11 -10 -11 -17 1 -8 12 -16 12 -49 2z"/>
<path d="M1300 180 l-21 -30 31 4 c42 5 57 20 40 41 -18 21 -26 19 -50 -15z"/>
<path d="M2285 183 c4 -10 8 -25 9 -33 5 -35 19 -50 45 -49 l26 1 -25 8 -25 8
28 1 c41 1 33 36 -8 36 -25 1 -29 5 -27 23 2 15 -2 22 -13 22 -12 0 -15 -5
-10 -17z"/>
<path d="M3258 173 c7 -3 16 -2 19 1 4 3 -2 6 -13 5 -11 0 -14 -3 -6 -6z"/>
<path d="M3050 115 c-11 -13 -8 -15 15 -15 23 0 26 2 15 15 -7 8 -14 15 -15
15 -1 0 -8 -7 -15 -15z"/>
<path d="M1276 97 c3 -10 9 -15 12 -12 3 3 0 11 -7 18 -10 9 -11 8 -5 -6z"/>
<path d="M2443 64 c-24 -26 -14 -34 11 -8 9 8 20 13 26 9 6 -3 7 1 4 9 -8 21
-14 19 -41 -10z"/>
<path d="M1640 70 c0 -5 4 -10 9 -10 6 0 13 5 16 10 3 6 -1 10 -9 10 -9 0 -16
-4 -16 -10z"/>
<path d="M1300 60 c0 -5 5 -10 10 -10 6 0 10 5 10 10 0 6 -4 10 -10 10 -5 0
-10 -4 -10 -10z"/>
<path d="M3031 57 c0 -9 -16 -26 -33 -37 l-33 -20 55 0 c46 1 52 3 38 13 -9 7
-18 24 -21 37 -2 15 -5 18 -6 7z"/>
<path d="M3375 61 c3 -5 -3 -12 -12 -14 -11 -3 -8 -5 10 -6 18 -1 27 4 27 14
0 8 -7 15 -16 15 -8 0 -13 -4 -9 -9z"/>
<path d="M2290 51 c0 -5 12 -7 27 -5 39 7 42 14 5 14 -18 0 -32 -4 -32 -9z"/>
<path d="M3050 49 c0 -5 5 -7 10 -4 6 3 10 8 10 11 0 2 -4 4 -10 4 -5 0 -10
-5 -10 -11z"/>
<path d="M1148 43 c7 -3 16 -2 19 1 4 3 -2 6 -13 5 -11 0 -14 -3 -6 -6z"/>
<path d="M1110 13 c-22 -11 -16 -13 59 -13 83 0 103 7 43 15 -17 2 -36 6 -41
9 -5 4 -12 0 -14 -6 -4 -9 -8 -10 -14 -2 -5 7 -16 6 -33 -3z"/>
<path d="M2297 22 c-10 -2 -17 -8 -17 -13 0 -5 38 -9 85 -9 61 0 85 3 85 13 0
8 -20 12 -68 12 -38 0 -76 -1 -85 -3z"/>
<path d="M128 3 c7 -3 16 -2 19 1 4 3 -2 6 -13 5 -11 0 -14 -3 -6 -6z"/>
</g>
</svg>
